<?xml version="1.0" encoding="utf-8"?>
<!-- Generator: Adobe Illustrator 19.2.1, SVG Export Plug-In . SVG Version: 6.00 Build 0)  -->
<svg version="1.1" id="layer" xmlns="http://www.w3.org/2000/svg" xmlns:xlink="http://www.w3.org/1999/xlink" x="0px" y="0px"
	 viewBox="0 0 652 652" style="enable-background:new 0 0 652 652;" xml:space="preserve">
<style type="text/css">
	.st0{fill:#17365C;}
</style>
<path class="st0" d="M544.6,376h42.3c17.2,0,33.9-9.9,33.9-31.1c0.3-14-10.2-25.8-24.1-27.2l0,0c12.3-2.7,21.1-13.7,20.8-26.3
	c0-18.1-12.4-27.6-31.4-27.6h-41.4L544.6,376z M554.5,367.4v-44.8h29.6c14.8,0,26.5,6.8,26.5,22.2s-11.5,22.9-26.2,22.9L554.5,367.4
	z M554.5,314v-42.1h29.2c13.4,0,23.9,6.2,23.9,20.7S595.5,314,582.2,314H554.5z"/>
<path class="st0" d="M478.6,377.9c26.3,0,45.6-15.1,45.6-42.6v-71.9h-24.5v71.2c0,14.8-7.3,22.2-20.8,22.2c-14.8,0-21.2-9-21.2-22.2
	v-71.2h-24.7v73.3c0,27.6,18,41.2,45.3,41.2"/>
<path class="st0" d="M393.8,338.3c13.5-6.7,22-20.4,22-35.5c0.9-20.9-15.3-38.6-36.3-39.5c-1.1,0-2.2,0-3.2,0h-49.4v112.5h24.7
	v-92.8h19.2c13.2,0,20.8,8.4,20.8,19.8c0,9.9-5.9,19.8-21.1,19.8h-15.4l38.7,53.7h27L393.8,338.3z"/>
<path class="st0" d="M147.2,375.8h2.9v-21.2l0,0l7.8,15.1h2.4l7.8-15.1l0,0v21.3h2.9v-26.5h-3.8l-8.2,16.2l0,0l-8.1-16.2h-3.7V375.8
	z M130.9,376.2c4.9,0.5,9.3-3,9.8-7.9c0-0.4,0.1-0.9,0-1.3v-17.7h-3v17.4c0.4,3.4-2.1,6.4-5.5,6.8c-0.5,0-0.9,0-1.4,0
	c-3.5,0.3-6.6-2.2-6.9-5.7c0-0.4,0-0.8,0-1.2v-17.3h-3v17.8c-0.2,4.8,3.5,9,8.4,9.2C130,376.3,130.5,376.3,130.9,376.2 M95.4,375.7
	h3v-12.3h13.4v12.4h2.8v-26.5h-3v11.5H98.3v-11.5h-3L95.4,375.7z M80.6,376.2c4.6,0.5,8.7-2.7,9.3-7.3c0-0.2,0-0.4,0.1-0.7v-0.9H87
	v0.5c0,3.6-2.7,5.7-6.5,5.7c-3.6,0.5-6.9-2.1-7.4-5.7c0-0.3-0.1-0.6-0.1-0.8v-8.9c-0.1-3.6,2.8-6.6,6.5-6.7c0.2,0,0.3,0,0.5,0
	c3.9,0,6.7,2.1,6.7,5.7v0.9h3.2v-1.3c-0.2-4.7-4.2-8.3-8.9-8.1c-0.3,0-0.6,0.1-1,0.1c-5.1-0.3-9.6,3.6-9.9,8.8c0,0.2,0,0.4,0,0.6
	v9.2c0,5,4.1,9,9.1,9c0.4,0,0.7,0,1.1-0.1 M54.7,373.6c-3.6,0.4-6.7-2.2-7.1-5.7c0-0.3,0-0.5,0-0.8v-8.7c-0.2-3.6,2.6-6.7,6.2-6.9
	c0.3,0,0.5,0,0.8,0c3.5-0.5,6.7,2,7.2,5.5c0,0.3,0.1,0.6,0.1,0.9v9.2c0.1,3.6-2.7,6.6-6.3,6.7c-0.2,0-0.5,0-0.7,0 M54.7,376.4
	c5.2,0.2,9.6-3.8,9.9-9.1c0-0.2,0-0.4,0-0.6v-8.9c0-5.1-4.2-9.2-9.3-9.2c-0.2,0-0.4,0-0.6,0c-5.2-0.2-9.6,3.8-9.9,9.1
	c0,0.2,0,0.4,0,0.6v9c0.1,5,4.2,9,9.2,8.9c0.3,0,0.6,0,0.9-0.1 M24.2,360.9v-9.1h6.4c3,0,5.3,1.3,5.3,4.4s-2.5,4.6-5.5,4.6H24.2z
	 M24.2,373.2v-9.9H31c3.3,0,5.7,1.4,5.7,4.9s-2.5,4.9-5.7,4.9H24.2z M21.2,375.8h10.5c4.1,0.4,7.7-2.6,8.1-6.7c0-0.2,0-0.5,0-0.7
	c0-3.1-2.3-5.8-5.4-6.3l0,0c2.7-0.7,4.7-3.2,4.6-6c0-4.3-3-6.6-7.6-6.6H21.2V375.8z"/>
<path class="st0" d="M241.2,332.9h4.9v-22.3h7.7v-4.2h-20.2v4.2h7.7V332.9z M223.8,303.9h4.4V299h-4.4L223.8,303.9z M216.4,303.9
	h4.4V299h-4.4V303.9z M218.3,323l3.6-10.6l0,0l3.6,10.6H218.3z M210,332.8h4.9l2-5.7h10.1l1.9,5.7h5.2l-9.9-26.5h-4.5L210,332.8z
	 M198.6,332.8h4.9v-22.2h7.7v-4.2h-20v4.2h7.6L198.6,332.8z M181.6,332.8h4.9v-26.5h-4.9V332.8z M166.4,333.2
	c5.8,0,10.2-3.2,10.2-8.1c0.3-3.6-2.3-6.9-5.9-7.5l-4.5-1.1c-2.1-0.5-3.9-1.4-3.9-3.3c0-1.8,2.1-3.4,4.2-3.4c2.3-0.3,4.6,1,5.7,3.1
	l4-1.8c-1.5-3.7-5.3-6-9.3-5.5c-4.6-0.6-8.8,2.7-9.4,7.3c0,0.2,0,0.4-0.1,0.6c0,4.7,2.8,6.3,6.4,7.2l4.4,1c2.1,0.6,3.7,1.5,3.7,3.5
	s-2.5,3.5-5.2,3.5c-2.8,0.2-5.4-1.4-6.4-4l-4.4,1.8c1.7,4.4,6.1,7,10.7,6.5 M137.7,318.6v-8.1h4.9c2.7,0,4.9,1,4.9,4.1
	c0,3.2-1.9,4.1-4.9,4.1L137.7,318.6z M132.8,332.7h4.9v-9.9h4.3l6.2,9.9h5.4l-6.6-10.1c3.3-1.1,5.4-4.3,5.3-7.7
	c0.1-4.5-3.5-8.3-8.1-8.3c-0.3,0-0.7,0-1,0h-10.5V332.7z M108.8,332.7h18.6v-4.4h-13.6v-6.8h11.9v-4.3h-11.9v-6.5h13.5v-4.3h-18.4
	V332.7z M91.8,332.7h4.9l8.8-26.6h-4.9l-6,19.5l0,0l-6.2-19.3h-5.3L91.8,332.7z M74.7,332.7h4.9v-26.4h-4.9V332.7z M47.4,332.7h4.9
	v-18l0,0l11.5,18.1h4.9v-26.5h-4.9v18.1l0,0l-11.7-18.1h-4.9L47.4,332.7z M31.1,333.1c5.2,0.5,9.8-3.2,10.3-8.4c0-0.5,0.1-1,0-1.4
	v-16.9h-4.9v16.7c0,3.8-1.8,5.7-5.4,5.7c-2.7,0.3-5.2-1.6-5.5-4.3c-0.1-0.5,0-0.9,0-1.4v-16.7h-4.9v17.4c-0.3,5,3.6,9.3,8.6,9.6
	c0.6,0,1.2,0,1.7-0.1"/>
<path class="st0" d="M103.9,275.9v-8.2h4.9c2.8,0,4.9,1,4.9,4.1c0,3.2-1.9,4.1-4.9,4.1H103.9z M99,289.9h4.9v-9.9h4.3l6.2,9.9h5.4
	l-6.6-10.5c3.2-1.2,5.3-4.3,5.2-7.7c0.1-4.5-3.4-8.3-8-8.4c-0.3,0-0.6,0-0.9,0H99V289.9z M72.4,289.9h4.9v-11.3h10.6v11.3h4.9v-26.6
	h-4.9v10.9H77.4v-10.9h-4.9V289.9z M56.1,290.4c5.2,0.5,9.8-3.2,10.3-8.4c0-0.5,0.1-1,0-1.4v-17.1h-4.9v16.8c0,3.8-1.8,5.7-5.4,5.7
	c-2.7,0.4-5.2-1.5-5.5-4.2c-0.1-0.5-0.1-1,0-1.4v-16.8h-4.9v17.4c-0.3,5.1,3.6,9.4,8.7,9.7C55,290.5,55.5,290.4,56.1,290.4
	 M25.7,275.9v-8.2h4.9c2.7,0,4.9,1,4.9,4.1c0,3.2-1.9,4.1-4.9,4.1H25.7z M20.8,289.9h4.9v-9.9H30l6.2,9.9h5.6l-6.6-10.5
	c3.3-1.1,5.4-4.2,5.3-7.7c0.1-4.5-3.4-8.3-7.9-8.4c-0.4,0-0.8,0-1.1,0H20.8V289.9z"/>
</svg>
