<?xml version="1.0" encoding="utf-8"?>
<!-- Generator: Adobe Illustrator 26.0.0, SVG Export Plug-In . SVG Version: 6.00 Build 0)  -->
<svg version="1.1" xmlns="http://www.w3.org/2000/svg" xmlns:xlink="http://www.w3.org/1999/xlink" x="0px" y="0px"
	 viewBox="0 0 133.23 76.54" style="enable-background:new 0 0 133.23 76.54;" xml:space="preserve">
<style type="text/css">
	.st0{fill:#D60F3C;}
	.st1{fill:#002D59;}
	.st2{display:none;}
	.st3{display:inline;opacity:0;fill:#C3C7DA;}
</style>
<g id="Klammer">
	<g>
		<g>
			<polygon class="st0" points="7.27,17.31 4.27,17.31 4.27,4.25 17.33,4.25 17.33,7.25 7.27,7.25 			"/>
		</g>
	</g>
</g>
<g id="DE">
	<g>
		<path class="st1" d="M21.06,28.38v2.64h-6.44v3.44h5.78v2.62h-5.78v4h6.44v2.62h-9.55V28.38H21.06z"/>
		<path class="st1" d="M31.64,32.36c-0.67-1.04-1.47-1.56-3.02-1.56c-1.4,0-2.15,0.64-2.15,1.69c0,1.2,0.98,1.73,3.02,2.24
			c3.2,0.8,4.64,2,4.64,4.71c0,2.51-1.69,4.47-5.29,4.47c-2.69,0-4.55-0.73-5.91-2.51l2.38-1.64c0.82,1.02,1.76,1.53,3.33,1.53
			c1.78,0,2.38-0.78,2.38-1.71c0-1.07-0.64-1.67-3.13-2.31c-3.02-0.8-4.53-2.24-4.53-4.78c0-2.42,1.6-4.31,5.24-4.31
			c2.44,0,4.29,0.82,5.38,2.51L31.64,32.36z"/>
		<path class="st1" d="M44.86,32.36c-0.67-1.04-1.47-1.56-3.02-1.56c-1.4,0-2.15,0.64-2.15,1.69c0,1.2,0.98,1.73,3.02,2.24
			c3.2,0.8,4.64,2,4.64,4.71c0,2.51-1.69,4.47-5.29,4.47c-2.69,0-4.55-0.73-5.91-2.51l2.38-1.64c0.82,1.02,1.76,1.53,3.33,1.53
			c1.78,0,2.38-0.78,2.38-1.71c0-1.07-0.64-1.67-3.13-2.31c-3.02-0.8-4.53-2.24-4.53-4.78c0-2.42,1.6-4.31,5.24-4.31
			c2.44,0,4.29,0.82,5.38,2.51L44.86,32.36z"/>
		<path class="st1" d="M53.22,41.09h6.44v2.62h-9.55V28.38h3.11V41.09z"/>
		<path class="st1" d="M65.09,43.71h-3.11V28.38h3.11V43.71z"/>
		<path class="st1" d="M80.31,28.38v15.33h-2.6l-5.98-9.49v9.49h-2.96V28.38h2.58l6,9.62v-9.62H80.31z"/>
		<path class="st1" d="M94.84,35.73v1.4c0,4.69-2.18,6.78-5.64,6.78c-3.44,0-5.87-2.09-5.87-6.78v-1.96c0-4.95,2.42-7,5.87-7
			c3.22,0,5.15,1.82,5.62,4.95h-2.98c-0.27-1.4-1.09-2.33-2.64-2.33c-1.8,0-2.75,1.22-2.75,4.16v2.18c0,2.93,0.96,4.15,2.75,4.15
			c1.75,0,2.47-1.09,2.64-2.93h-2.58v-2.62H94.84z"/>
		<path class="st1" d="M107.4,28.38v2.64h-6.44v3.44h5.78v2.62h-5.78v4h6.44v2.62h-9.55V28.38H107.4z"/>
		<path class="st1" d="M121.53,28.38v15.33h-2.6l-5.98-9.49v9.49H110V28.38h2.58l6,9.62v-9.62H121.53z"/>
	</g>
	<g>
		<polygon class="st1" points="18.84,17.11 12.58,17.11 12.58,11.53 11.52,11.53 11.52,24.15 12.58,24.15 12.58,18.1 18.84,18.1 
			18.84,24.15 19.9,24.15 19.9,11.53 18.84,11.53 		"/>
		<path class="st1" d="M27.19,11.42c-2.71,0-4.48,1.7-4.48,5.67v1.5c0,3.99,1.78,5.67,4.48,5.67c2.71,0,4.48-1.68,4.48-5.67v-1.5
			C31.67,13.12,29.89,11.42,27.19,11.42z M30.61,18.59c0,3.42-1.35,4.68-3.42,4.68s-3.42-1.26-3.42-4.68v-1.5
			c0-3.4,1.35-4.68,3.42-4.68s3.42,1.28,3.42,4.68V18.59z"/>
		<path class="st1" d="M38.96,12.41c1.72,0,2.98,0.8,3.4,2.95h1.04c-0.4-2.76-2.2-3.93-4.45-3.93c-2.74,0-4.48,1.59-4.48,5.67v1.5
			c0,4.08,1.74,5.67,4.48,5.67c2.16,0,4.03-1.13,4.43-3.97h-1.02c-0.4,2.01-1.57,2.98-3.4,2.98c-2.14,0-3.42-1.23-3.42-4.68v-1.5
			C35.54,13.65,36.8,12.41,38.96,12.41z"/>
		<polygon class="st1" points="53.53,17.11 47.27,17.11 47.27,11.53 46.21,11.53 46.21,24.15 47.27,24.15 47.27,18.1 53.53,18.1 
			53.53,24.15 54.59,24.15 54.59,11.53 53.53,11.53 		"/>
		<path class="st1" d="M62.02,17.35c-1.83-0.4-3.28-0.86-3.28-2.67c0-1.56,1.15-2.27,2.89-2.27c1.74,0,2.62,0.71,3.28,1.68l0.84-0.6
			c-0.88-1.39-2.12-2.07-4.08-2.07c-2.84,0-3.99,1.48-3.99,3.26c0,2.25,1.61,3.17,3.97,3.62c2.38,0.46,3.26,1.19,3.26,2.71
			c0,1.23-0.84,2.27-3.09,2.27c-1.88,0-2.76-0.7-3.55-1.68l-0.86,0.6c0.93,1.37,2.4,2.07,4.41,2.07c3.02,0,4.15-1.68,4.15-3.29
			C65.97,18.59,64.4,17.86,62.02,17.35z"/>
		<path class="st1" d="M72.76,12.41c1.72,0,2.98,0.8,3.4,2.95h1.04c-0.4-2.76-2.2-3.93-4.45-3.93c-2.74,0-4.48,1.59-4.48,5.67v1.5
			c0,4.08,1.74,5.67,4.48,5.67c2.16,0,4.03-1.13,4.43-3.97h-1.02c-0.4,2.01-1.57,2.98-3.4,2.98c-2.14,0-3.42-1.23-3.42-4.68v-1.5
			C69.34,13.65,70.61,12.41,72.76,12.41z"/>
		<polygon class="st1" points="87.22,17.11 80.96,17.11 80.96,11.53 79.9,11.53 79.9,24.15 80.96,24.15 80.96,18.1 87.22,18.1 
			87.22,24.15 88.28,24.15 88.28,11.53 87.22,11.53 		"/>
		<path class="st1" d="M99.85,18.99c0,2.93-1.21,4.28-3.42,4.28s-3.42-1.35-3.42-4.28v-7.46h-1.06v7.46c0,3.71,1.74,5.27,4.48,5.27
			s4.48-1.55,4.48-5.27v-7.46h-1.06V18.99z"/>
		<polygon class="st1" points="105.42,11.53 104.36,11.53 104.36,24.15 111.79,24.15 111.79,23.16 105.42,23.16 		"/>
		<polygon class="st1" points="121.51,12.52 121.51,11.53 114.09,11.53 114.09,24.15 121.51,24.15 121.51,23.16 115.15,23.16 
			115.15,18.12 120.96,18.12 120.96,17.13 115.15,17.13 115.15,12.52 		"/>
	</g>
	<g>
		<path class="st0" d="M15.05,59.04h1.86c0.06,0,0.09,0.03,0.09,0.09v0.68c0,0.06-0.03,0.09-0.09,0.09H16.5
			c-0.04,0-0.05,0.02-0.05,0.05v4.92c0,0.06-0.03,0.09-0.09,0.09h-0.78c-0.06,0-0.11-0.03-0.15-0.09l-2.4-4.07h-0.04v3.25
			c0,0.04,0.02,0.05,0.05,0.05h0.42c0.06,0,0.09,0.03,0.09,0.09v0.68c0,0.06-0.03,0.09-0.09,0.09H11.6c-0.06,0-0.09-0.03-0.09-0.09
			v-0.68c0-0.06,0.03-0.09,0.09-0.09h0.42c0.03,0,0.05-0.02,0.05-0.05v-4.11c0-0.04-0.02-0.05-0.05-0.05H11.6
			c-0.06,0-0.09-0.03-0.09-0.09v-0.68c0-0.06,0.03-0.09,0.09-0.09h1.35c0.06,0,0.11,0.03,0.15,0.09l2.39,4.08h0.04v-3.26
			c0-0.04-0.02-0.05-0.05-0.05h-0.42c-0.06,0-0.09-0.03-0.09-0.09v-0.68C14.96,59.07,14.99,59.04,15.05,59.04z"/>
		<path class="st0" d="M19.43,60.67c0.63,0,1.08,0.11,1.34,0.34c0.26,0.23,0.4,0.6,0.4,1.12v1.92c0,0.04,0.02,0.05,0.05,0.05h0.37
			c0.06,0,0.09,0.03,0.09,0.09v0.68c0,0.06-0.03,0.09-0.09,0.09h-1.24c-0.06,0-0.09-0.03-0.09-0.09v-0.3h-0.01
			c-0.23,0.33-0.61,0.49-1.17,0.49c-0.41,0-0.74-0.11-1-0.33c-0.26-0.22-0.4-0.54-0.4-0.96c0-0.45,0.15-0.78,0.44-1
			c0.29-0.22,0.7-0.33,1.23-0.33h0.83c0.04,0,0.05-0.02,0.05-0.05v-0.17c0-0.25-0.06-0.44-0.19-0.56s-0.35-0.17-0.67-0.17
			c-0.15,0-0.3,0.02-0.45,0.05c-0.03,0.01-0.04,0.03-0.04,0.06v0.37c0,0.06-0.03,0.09-0.09,0.09h-0.76c-0.06,0-0.09-0.03-0.09-0.09
			v-0.89c0-0.05,0.02-0.09,0.07-0.11C18.45,60.76,18.91,60.67,19.43,60.67z M20.2,63.15h-0.68c-0.6,0-0.9,0.19-0.9,0.57
			c0,0.35,0.24,0.53,0.71,0.53c0.61,0,0.91-0.24,0.91-0.71v-0.34C20.25,63.17,20.24,63.15,20.2,63.15z"/>
		<path class="st0" d="M22.38,59.04h1.31c0.06,0,0.09,0.03,0.09,0.09v2.03h0.01c0.23-0.33,0.59-0.49,1.09-0.49
			c0.43,0,0.78,0.14,1.05,0.43s0.4,0.67,0.4,1.12v1.83c0,0.04,0.02,0.05,0.05,0.05h0.36c0.06,0,0.09,0.03,0.09,0.09v0.68
			c0,0.06-0.03,0.09-0.09,0.09h-1.81c-0.06,0-0.09-0.03-0.09-0.09v-0.68c0-0.06,0.03-0.09,0.09-0.09h0.37
			c0.04,0,0.05-0.02,0.05-0.05v-1.6c0-0.28-0.07-0.5-0.2-0.67c-0.13-0.17-0.33-0.25-0.58-0.25c-0.25,0-0.44,0.08-0.58,0.25
			c-0.14,0.17-0.21,0.39-0.21,0.67v1.6c0,0.04,0.02,0.05,0.05,0.05h0.37c0.06,0,0.09,0.03,0.09,0.09v0.68
			c0,0.06-0.03,0.09-0.09,0.09h-1.83c-0.06,0-0.09-0.03-0.09-0.09v-0.68c0-0.06,0.03-0.09,0.09-0.09h0.37
			c0.04,0,0.05-0.02,0.05-0.05v-4.11c0-0.04-0.02-0.05-0.05-0.05h-0.37c-0.06,0-0.09-0.03-0.09-0.09v-0.68
			C22.3,59.07,22.33,59.04,22.38,59.04z"/>
		<path class="st0" d="M30.44,60.67c0.63,0,1.08,0.11,1.34,0.34c0.26,0.23,0.4,0.6,0.4,1.12v1.92c0,0.04,0.02,0.05,0.05,0.05h0.37
			c0.06,0,0.09,0.03,0.09,0.09v0.68c0,0.06-0.03,0.09-0.09,0.09h-1.24c-0.06,0-0.09-0.03-0.09-0.09v-0.3h-0.01
			c-0.23,0.33-0.61,0.49-1.17,0.49c-0.41,0-0.74-0.11-1-0.33c-0.26-0.22-0.4-0.54-0.4-0.96c0-0.45,0.15-0.78,0.44-1
			c0.29-0.22,0.7-0.33,1.23-0.33h0.83c0.04,0,0.05-0.02,0.05-0.05v-0.17c0-0.25-0.06-0.44-0.19-0.56s-0.35-0.17-0.67-0.17
			c-0.15,0-0.3,0.02-0.45,0.05c-0.03,0.01-0.04,0.03-0.04,0.06v0.37c0,0.06-0.03,0.09-0.09,0.09h-0.76c-0.06,0-0.09-0.03-0.09-0.09
			v-0.89c0-0.05,0.02-0.09,0.07-0.11C29.45,60.76,29.92,60.67,30.44,60.67z M31.21,63.15h-0.68c-0.6,0-0.9,0.19-0.9,0.57
			c0,0.35,0.24,0.53,0.71,0.53c0.61,0,0.91-0.24,0.91-0.71v-0.34C31.26,63.17,31.24,63.15,31.21,63.15z"/>
		<path class="st0" d="M35.88,60.67c0.44,0,0.79,0.14,1.06,0.43s0.4,0.67,0.4,1.12v1.83c0,0.04,0.02,0.05,0.05,0.05h0.36
			c0.06,0,0.09,0.03,0.09,0.09v0.68c0,0.06-0.03,0.09-0.09,0.09h-1.81c-0.06,0-0.09-0.03-0.09-0.09v-0.68
			c0-0.06,0.03-0.09,0.09-0.09h0.37c0.04,0,0.05-0.02,0.05-0.05v-1.6c0-0.28-0.07-0.5-0.2-0.67c-0.13-0.17-0.33-0.25-0.58-0.25
			c-0.25,0-0.44,0.08-0.58,0.25c-0.14,0.17-0.21,0.39-0.21,0.67v1.6c0,0.04,0.02,0.05,0.05,0.05h0.37c0.06,0,0.09,0.03,0.09,0.09
			v0.68c0,0.06-0.03,0.09-0.09,0.09h-1.83c-0.06,0-0.09-0.03-0.09-0.09v-0.68c0-0.06,0.03-0.09,0.09-0.09h0.37
			c0.04,0,0.05-0.02,0.05-0.05v-2.38c0-0.03-0.02-0.05-0.05-0.05h-0.37c-0.06,0-0.09-0.03-0.09-0.09v-0.68
			c0-0.06,0.03-0.09,0.09-0.09h1.31c0.06,0,0.09,0.03,0.09,0.09v0.3h0.01C35.03,60.83,35.38,60.67,35.88,60.67z"/>
		<path class="st0" d="M45.01,59.04h1.3c0.06,0,0.09,0.03,0.09,0.09v0.68c0,0.06-0.03,0.09-0.09,0.09h-0.42
			c-0.03,0-0.05,0.02-0.05,0.05v4.11c0,0.04,0.02,0.05,0.05,0.05h0.42c0.06,0,0.09,0.03,0.09,0.09v0.68c0,0.06-0.03,0.09-0.09,0.09
			h-1.84c-0.06,0-0.09-0.03-0.09-0.09v-0.68c0-0.06,0.03-0.09,0.09-0.09h0.4c0.04,0,0.05-0.02,0.05-0.05v-2.8h-0.03l-1.26,2.78
			c-0.04,0.08-0.09,0.11-0.17,0.11h-0.5c-0.08,0-0.13-0.04-0.17-0.11l-1.26-2.78h-0.04v2.8c0,0.04,0.02,0.05,0.05,0.05h0.37
			c0.06,0,0.09,0.03,0.09,0.09v0.68c0,0.06-0.03,0.09-0.09,0.09H40.1c-0.06,0-0.09-0.03-0.09-0.09v-0.68c0-0.06,0.03-0.09,0.09-0.09
			h0.42c0.03,0,0.05-0.02,0.05-0.05v-4.11c0-0.04-0.02-0.05-0.05-0.05H40.1c-0.06,0-0.09-0.03-0.09-0.09v-0.68
			c0-0.06,0.03-0.09,0.09-0.09h1.3c0.08,0,0.13,0.03,0.15,0.09l1.65,3.69h0.04l1.63-3.69C44.89,59.07,44.94,59.04,45.01,59.04z"/>
		<path class="st0" d="M48.98,60.67c0.43,0,0.79,0.1,1.1,0.31s0.51,0.49,0.63,0.85c0.09,0.28,0.14,0.7,0.14,1.26
			c0,0.06-0.03,0.09-0.1,0.09h-2.58c-0.04,0-0.05,0.02-0.05,0.05c0,0.1,0.02,0.21,0.06,0.32c0.14,0.42,0.46,0.63,0.94,0.63
			c0.41,0,0.74-0.13,0.98-0.4c0.05-0.05,0.09-0.05,0.13-0.02l0.51,0.45c0.04,0.03,0.04,0.08,0.01,0.12
			c-0.41,0.48-0.98,0.71-1.72,0.71c-0.44,0-0.81-0.1-1.12-0.31c-0.3-0.21-0.51-0.49-0.63-0.86c-0.1-0.31-0.15-0.65-0.15-1.03
			c0-0.4,0.05-0.75,0.14-1.04c0.12-0.37,0.33-0.65,0.63-0.85C48.2,60.77,48.56,60.67,48.98,60.67z M48.99,61.49
			c-0.43,0-0.7,0.18-0.83,0.54c-0.04,0.1-0.05,0.22-0.05,0.36c0,0.04,0.02,0.05,0.05,0.05h1.64c0.04,0,0.05-0.02,0.05-0.05
			c0-0.13-0.02-0.25-0.05-0.36c-0.06-0.17-0.16-0.3-0.3-0.4S49.19,61.49,48.99,61.49z"/>
		<path class="st0" d="M54.15,60.67c0.44,0,0.79,0.14,1.06,0.43s0.4,0.67,0.4,1.12v1.83c0,0.04,0.02,0.05,0.05,0.05h0.36
			c0.06,0,0.09,0.03,0.09,0.09v0.68c0,0.06-0.03,0.09-0.09,0.09H54.2c-0.06,0-0.09-0.03-0.09-0.09v-0.68c0-0.06,0.03-0.09,0.09-0.09
			h0.37c0.04,0,0.05-0.02,0.05-0.05v-1.6c0-0.28-0.07-0.5-0.2-0.67c-0.13-0.17-0.33-0.25-0.58-0.25c-0.25,0-0.44,0.08-0.58,0.25
			c-0.14,0.17-0.21,0.39-0.21,0.67v1.6c0,0.04,0.02,0.05,0.05,0.05h0.37c0.06,0,0.09,0.03,0.09,0.09v0.68
			c0,0.06-0.03,0.09-0.09,0.09h-1.83c-0.06,0-0.09-0.03-0.09-0.09v-0.68c0-0.06,0.03-0.09,0.09-0.09h0.37
			c0.04,0,0.05-0.02,0.05-0.05v-2.38c0-0.03-0.02-0.05-0.05-0.05h-0.37c-0.06,0-0.09-0.03-0.09-0.09v-0.68
			c0-0.06,0.03-0.09,0.09-0.09h1.31c0.06,0,0.09,0.03,0.09,0.09v0.3h0.01C53.3,60.83,53.65,60.67,54.15,60.67z"/>
		<path class="st0" d="M58.43,60.67c0.54,0,1.04,0.1,1.47,0.3c0.05,0.02,0.07,0.06,0.07,0.12v0.87c0,0.06-0.03,0.09-0.09,0.09h-0.71
			c-0.06,0-0.09-0.03-0.09-0.09v-0.32c0-0.04-0.01-0.06-0.04-0.07c-0.15-0.06-0.36-0.1-0.63-0.1c-0.47,0-0.71,0.14-0.71,0.43
			c0,0.13,0.05,0.24,0.15,0.31c0.1,0.07,0.29,0.12,0.55,0.15l0.46,0.05c0.47,0.05,0.81,0.18,1.02,0.4c0.21,0.21,0.31,0.5,0.31,0.87
			c0,0.44-0.16,0.77-0.47,1.02c-0.31,0.24-0.75,0.37-1.33,0.37c-0.59,0-1.11-0.11-1.57-0.33c-0.04-0.02-0.06-0.05-0.06-0.1v-0.94
			c0-0.06,0.03-0.09,0.09-0.09h0.74c0.06,0,0.09,0.03,0.09,0.09v0.38c0,0.03,0.01,0.05,0.04,0.06c0.2,0.08,0.44,0.11,0.73,0.11
			c0.52,0,0.78-0.16,0.78-0.49c0-0.15-0.05-0.26-0.16-0.33s-0.29-0.13-0.57-0.16l-0.46-0.05c-0.86-0.1-1.3-0.51-1.3-1.24
			c0-0.4,0.14-0.72,0.43-0.95C57.49,60.78,57.9,60.67,58.43,60.67z"/>
		<path class="st0" d="M62.9,60.67c0.58,0,1.06,0.11,1.44,0.33c0.05,0.02,0.07,0.06,0.07,0.11v0.96c0,0.06-0.03,0.09-0.09,0.09
			h-0.74c-0.06,0-0.09-0.03-0.09-0.09v-0.38c0-0.02-0.01-0.04-0.04-0.06c-0.12-0.06-0.29-0.09-0.53-0.09
			c-0.45,0-0.74,0.18-0.86,0.55c-0.06,0.17-0.09,0.43-0.09,0.77c0,0.35,0.03,0.61,0.09,0.78c0.12,0.36,0.41,0.54,0.86,0.54
			c0.25,0,0.43-0.03,0.53-0.08c0.03-0.01,0.04-0.03,0.04-0.06v-0.39c0-0.06,0.03-0.09,0.09-0.09h0.74c0.06,0,0.09,0.03,0.09,0.09
			v0.97c0,0.05-0.02,0.09-0.07,0.11c-0.41,0.21-0.89,0.32-1.44,0.32c-0.95,0-1.54-0.38-1.78-1.13c-0.09-0.26-0.13-0.62-0.13-1.06
			c0-0.43,0.04-0.77,0.13-1.04c0.12-0.37,0.34-0.66,0.65-0.86C62.07,60.76,62.45,60.67,62.9,60.67z"/>
		<path class="st0" d="M65.3,59.04h1.31c0.06,0,0.09,0.03,0.09,0.09v2.03h0.01c0.23-0.33,0.59-0.49,1.09-0.49
			c0.43,0,0.78,0.14,1.05,0.43s0.4,0.67,0.4,1.12v1.83c0,0.04,0.02,0.05,0.05,0.05h0.36c0.06,0,0.09,0.03,0.09,0.09v0.68
			c0,0.06-0.03,0.09-0.09,0.09h-1.81c-0.06,0-0.09-0.03-0.09-0.09v-0.68c0-0.06,0.03-0.09,0.09-0.09h0.37
			c0.04,0,0.05-0.02,0.05-0.05v-1.6c0-0.28-0.07-0.5-0.2-0.67c-0.13-0.17-0.33-0.25-0.58-0.25c-0.25,0-0.44,0.08-0.58,0.25
			c-0.14,0.17-0.21,0.39-0.21,0.67v1.6c0,0.04,0.02,0.05,0.05,0.05h0.37c0.06,0,0.09,0.03,0.09,0.09v0.68
			c0,0.06-0.03,0.09-0.09,0.09H65.3c-0.06,0-0.09-0.03-0.09-0.09v-0.68c0-0.06,0.03-0.09,0.09-0.09h0.37c0.04,0,0.05-0.02,0.05-0.05
			v-4.11c0-0.04-0.02-0.05-0.05-0.05H65.3c-0.06,0-0.09-0.03-0.09-0.09v-0.68C65.21,59.07,65.24,59.04,65.3,59.04z"/>
		<path class="st0" d="M74.23,60.76h1.32c0.06,0,0.09,0.03,0.09,0.09v3.2c0,0.04,0.02,0.05,0.05,0.05h0.38
			c0.06,0,0.09,0.03,0.09,0.09v0.68c0,0.06-0.03,0.09-0.09,0.09h-1.31c-0.06,0-0.09-0.03-0.09-0.09v-0.3h-0.01
			c-0.25,0.33-0.61,0.49-1.08,0.49c-0.44,0-0.79-0.14-1.05-0.43s-0.39-0.66-0.39-1.12v-1.83c0-0.03-0.02-0.05-0.05-0.05h-0.37
			c-0.06,0-0.09-0.03-0.09-0.09v-0.68c0-0.06,0.03-0.09,0.09-0.09h1.31c0.06,0,0.09,0.03,0.09,0.09v2.42c0,0.28,0.07,0.5,0.2,0.67
			s0.32,0.25,0.58,0.25c0.24,0,0.43-0.08,0.57-0.25c0.14-0.17,0.2-0.38,0.2-0.66v-1.61c0-0.03-0.02-0.05-0.05-0.05h-0.38
			c-0.06,0-0.09-0.03-0.09-0.09v-0.68C74.14,60.79,74.17,60.76,74.23,60.76z"/>
		<path class="st0" d="M79.38,60.67c0.44,0,0.79,0.14,1.06,0.43s0.4,0.67,0.4,1.12v1.83c0,0.04,0.02,0.05,0.05,0.05h0.36
			c0.06,0,0.09,0.03,0.09,0.09v0.68c0,0.06-0.03,0.09-0.09,0.09h-1.81c-0.06,0-0.09-0.03-0.09-0.09v-0.68
			c0-0.06,0.03-0.09,0.09-0.09h0.37c0.04,0,0.05-0.02,0.05-0.05v-1.6c0-0.28-0.07-0.5-0.2-0.67c-0.13-0.17-0.33-0.25-0.58-0.25
			c-0.25,0-0.44,0.08-0.58,0.25c-0.14,0.17-0.21,0.39-0.21,0.67v1.6c0,0.04,0.02,0.05,0.05,0.05h0.37c0.06,0,0.09,0.03,0.09,0.09
			v0.68c0,0.06-0.03,0.09-0.09,0.09h-1.83c-0.06,0-0.09-0.03-0.09-0.09v-0.68c0-0.06,0.03-0.09,0.09-0.09h0.37
			c0.04,0,0.05-0.02,0.05-0.05v-2.38c0-0.03-0.02-0.05-0.05-0.05h-0.37c-0.06,0-0.09-0.03-0.09-0.09v-0.68
			c0-0.06,0.03-0.09,0.09-0.09h1.31c0.06,0,0.09,0.03,0.09,0.09v0.3h0.01C78.52,60.83,78.88,60.67,79.38,60.67z"/>
		<path class="st0" d="M84.32,59.04h1.31c0.06,0,0.09,0.03,0.09,0.09v4.92c0,0.04,0.02,0.05,0.05,0.05h0.37
			c0.06,0,0.09,0.03,0.09,0.09v0.68c0,0.06-0.03,0.09-0.09,0.09h-1.31c-0.06,0-0.09-0.03-0.09-0.09v-0.31h-0.01
			c-0.23,0.33-0.6,0.5-1.11,0.5c-0.75,0-1.23-0.34-1.45-1.01c-0.1-0.3-0.15-0.7-0.15-1.18s0.05-0.88,0.15-1.18
			c0.22-0.67,0.71-1.01,1.45-1.01c0.51,0,0.88,0.17,1.11,0.5h0.01v-1.22c0-0.04-0.02-0.05-0.05-0.05h-0.37
			c-0.06,0-0.09-0.03-0.09-0.09v-0.68C84.23,59.07,84.26,59.04,84.32,59.04z M83.87,61.54c-0.4,0-0.66,0.18-0.77,0.54
			c-0.06,0.18-0.09,0.44-0.09,0.78s0.03,0.6,0.09,0.78c0.12,0.36,0.37,0.54,0.77,0.54c0.41,0,0.67-0.18,0.78-0.54
			c0.06-0.18,0.09-0.44,0.09-0.78s-0.03-0.6-0.09-0.78C84.54,61.71,84.28,61.54,83.87,61.54z"/>
		<path class="st0" d="M88.36,59.04h4.68c0.06,0,0.09,0.03,0.09,0.09v1.39c0,0.06-0.03,0.09-0.09,0.09H92.3
			c-0.06,0-0.09-0.03-0.09-0.09V60c0-0.04-0.02-0.05-0.05-0.05h-0.89c-0.03,0-0.05,0.02-0.05,0.05v4.05c0,0.04,0.02,0.05,0.05,0.05
			h0.45c0.06,0,0.09,0.03,0.09,0.09v0.68c0,0.06-0.03,0.09-0.09,0.09h-2.04c-0.06,0-0.09-0.03-0.09-0.09v-0.68
			c0-0.06,0.03-0.09,0.09-0.09h0.45c0.04,0,0.05-0.02,0.05-0.05V60c0-0.04-0.02-0.05-0.05-0.05h-0.89c-0.04,0-0.05,0.02-0.05,0.05
			v0.52c0,0.06-0.03,0.09-0.09,0.09h-0.75c-0.06,0-0.09-0.03-0.09-0.09v-1.39C88.28,59.07,88.31,59.04,88.36,59.04z"/>
		<path class="st0" d="M95.53,60.67c0.43,0,0.79,0.1,1.1,0.31s0.51,0.49,0.63,0.85c0.09,0.28,0.14,0.7,0.14,1.26
			c0,0.06-0.03,0.09-0.1,0.09h-2.58c-0.04,0-0.05,0.02-0.05,0.05c0,0.1,0.02,0.21,0.06,0.32c0.14,0.42,0.46,0.63,0.94,0.63
			c0.41,0,0.74-0.13,0.98-0.4c0.05-0.05,0.09-0.05,0.13-0.02l0.51,0.45c0.04,0.03,0.04,0.08,0.01,0.12
			c-0.41,0.48-0.98,0.71-1.72,0.71c-0.44,0-0.81-0.1-1.12-0.31c-0.3-0.21-0.51-0.49-0.63-0.86c-0.1-0.31-0.15-0.65-0.15-1.03
			c0-0.4,0.05-0.75,0.14-1.04c0.12-0.37,0.33-0.65,0.63-0.85C94.75,60.77,95.12,60.67,95.53,60.67z M95.54,61.49
			c-0.43,0-0.7,0.18-0.83,0.54c-0.04,0.1-0.05,0.22-0.05,0.36c0,0.04,0.02,0.05,0.05,0.05h1.64c0.04,0,0.05-0.02,0.05-0.05
			c0-0.13-0.02-0.25-0.05-0.36c-0.06-0.17-0.16-0.3-0.3-0.4S95.74,61.49,95.54,61.49z"/>
		<path class="st0" d="M100.12,60.67c0.58,0,1.06,0.11,1.44,0.33c0.05,0.02,0.07,0.06,0.07,0.11v0.96c0,0.06-0.03,0.09-0.09,0.09
			h-0.74c-0.06,0-0.09-0.03-0.09-0.09v-0.38c0-0.02-0.01-0.04-0.04-0.06c-0.12-0.06-0.29-0.09-0.53-0.09
			c-0.45,0-0.74,0.18-0.86,0.55c-0.06,0.17-0.09,0.43-0.09,0.77c0,0.35,0.03,0.61,0.09,0.78c0.12,0.36,0.41,0.54,0.86,0.54
			c0.25,0,0.43-0.03,0.53-0.08c0.03-0.01,0.04-0.03,0.04-0.06v-0.39c0-0.06,0.03-0.09,0.09-0.09h0.74c0.06,0,0.09,0.03,0.09,0.09
			v0.97c0,0.05-0.02,0.09-0.07,0.11c-0.41,0.21-0.89,0.32-1.44,0.32c-0.95,0-1.54-0.38-1.78-1.13c-0.09-0.26-0.13-0.62-0.13-1.06
			c0-0.43,0.04-0.77,0.13-1.04c0.12-0.37,0.34-0.66,0.65-0.86C99.29,60.76,99.67,60.67,100.12,60.67z"/>
		<path class="st0" d="M102.52,59.04h1.31c0.06,0,0.09,0.03,0.09,0.09v2.03h0.01c0.23-0.33,0.59-0.49,1.09-0.49
			c0.43,0,0.78,0.14,1.05,0.43s0.4,0.67,0.4,1.12v1.83c0,0.04,0.02,0.05,0.05,0.05h0.36c0.06,0,0.09,0.03,0.09,0.09v0.68
			c0,0.06-0.03,0.09-0.09,0.09h-1.81c-0.06,0-0.09-0.03-0.09-0.09v-0.68c0-0.06,0.03-0.09,0.09-0.09h0.37
			c0.04,0,0.05-0.02,0.05-0.05v-1.6c0-0.28-0.07-0.5-0.2-0.67c-0.13-0.17-0.33-0.25-0.58-0.25c-0.25,0-0.44,0.08-0.58,0.25
			c-0.14,0.17-0.21,0.39-0.21,0.67v1.6c0,0.04,0.02,0.05,0.05,0.05h0.37c0.06,0,0.09,0.03,0.09,0.09v0.68
			c0,0.06-0.03,0.09-0.09,0.09h-1.83c-0.06,0-0.09-0.03-0.09-0.09v-0.68c0-0.06,0.03-0.09,0.09-0.09h0.37
			c0.04,0,0.05-0.02,0.05-0.05v-4.11c0-0.04-0.02-0.05-0.05-0.05h-0.37c-0.06,0-0.09-0.03-0.09-0.09v-0.68
			C102.43,59.07,102.46,59.04,102.52,59.04z"/>
		<path class="st0" d="M110.14,60.67c0.44,0,0.79,0.14,1.06,0.43s0.4,0.67,0.4,1.12v1.83c0,0.04,0.02,0.05,0.05,0.05H112
			c0.06,0,0.09,0.03,0.09,0.09v0.68c0,0.06-0.03,0.09-0.09,0.09h-1.81c-0.06,0-0.09-0.03-0.09-0.09v-0.68
			c0-0.06,0.03-0.09,0.09-0.09h0.37c0.04,0,0.05-0.02,0.05-0.05v-1.6c0-0.28-0.07-0.5-0.2-0.67c-0.13-0.17-0.33-0.25-0.58-0.25
			c-0.25,0-0.44,0.08-0.58,0.25c-0.14,0.17-0.21,0.39-0.21,0.67v1.6c0,0.04,0.02,0.05,0.05,0.05h0.37c0.06,0,0.09,0.03,0.09,0.09
			v0.68c0,0.06-0.03,0.09-0.09,0.09h-1.83c-0.06,0-0.09-0.03-0.09-0.09v-0.68c0-0.06,0.03-0.09,0.09-0.09h0.37
			c0.04,0,0.05-0.02,0.05-0.05v-2.38c0-0.03-0.02-0.05-0.05-0.05h-0.37c-0.06,0-0.09-0.03-0.09-0.09v-0.68
			c0-0.06,0.03-0.09,0.09-0.09h1.31c0.06,0,0.09,0.03,0.09,0.09v0.3h0.01C109.29,60.83,109.65,60.67,110.14,60.67z"/>
		<path class="st0" d="M112.79,60.76h1.31c0.06,0,0.09,0.03,0.09,0.09v3.2c0,0.04,0.02,0.05,0.05,0.05h0.37
			c0.06,0,0.09,0.03,0.09,0.09v0.68c0,0.06-0.03,0.09-0.09,0.09h-1.83c-0.06,0-0.09-0.03-0.09-0.09v-0.68
			c0-0.06,0.03-0.09,0.09-0.09h0.37c0.04,0,0.05-0.02,0.05-0.05v-2.38c0-0.03-0.02-0.05-0.05-0.05h-0.37
			c-0.06,0-0.09-0.03-0.09-0.09v-0.68C112.7,60.79,112.73,60.76,112.79,60.76z M113.3,59.04h0.8c0.06,0,0.09,0.03,0.09,0.09v0.76
			c0,0.06-0.03,0.09-0.09,0.09h-0.8c-0.06,0-0.09-0.03-0.09-0.09v-0.76C113.21,59.07,113.24,59.04,113.3,59.04z"/>
		<path class="st0" d="M115.4,59.04h1.31c0.06,0,0.09,0.03,0.09,0.09v3.34l1.42-1.62c0.05-0.06,0.11-0.09,0.17-0.09h0.89
			c0.06,0,0.09,0.03,0.09,0.09v0.68c0,0.06-0.03,0.09-0.09,0.09h-0.57c-0.03,0-0.07,0.02-0.1,0.05l-0.59,0.67l1.01,1.71
			c0.02,0.04,0.05,0.05,0.09,0.05h0.42c0.06,0,0.09,0.03,0.09,0.09v0.68c0,0.06-0.03,0.09-0.09,0.09h-0.97
			c-0.06,0-0.1-0.03-0.14-0.09l-1.05-1.81l-0.57,0.65v0.34c0,0.04,0.02,0.05,0.05,0.05h0.37c0.06,0,0.09,0.03,0.09,0.09v0.68
			c0,0.06-0.03,0.09-0.09,0.09h-1.83c-0.06,0-0.09-0.03-0.09-0.09v-0.68c0-0.06,0.03-0.09,0.09-0.09h0.37
			c0.04,0,0.05-0.02,0.05-0.05v-4.11c0-0.04-0.02-0.05-0.05-0.05h-0.37c-0.06,0-0.09-0.03-0.09-0.09v-0.68
			C115.32,59.07,115.34,59.04,115.4,59.04z"/>
		<path class="st0" d="M120.44,63.89h0.87c0.06,0,0.09,0.03,0.09,0.09v0.89c0,0.06-0.03,0.09-0.09,0.09h-0.87
			c-0.06,0-0.09-0.03-0.09-0.09v-0.89C120.35,63.92,120.38,63.89,120.44,63.89z"/>
	</g>
</g>
<g id="Vermassung" class="st2">
	<path class="st3" d="M11.43,43.71v2.64H4.99v3.44h5.78v2.62H4.99v4h6.44v2.62H1.88V43.71H11.43z"/>
	<rect x="0" y="7.23" class="st3" width="4.26" height="4.26"/>
	<rect x="5.99" y="0" class="st3" width="4.26" height="4.26"/>
	<rect x="7.27" y="7.28" class="st3" width="4.26" height="4.26"/>
	<rect x="7.23" y="24.16" class="st3" width="4.26" height="4.26"/>
</g>
</svg>
