<?xml version="1.0" encoding="UTF-8" standalone="no"?>
<svg
   xmlns:dc="http://purl.org/dc/elements/1.1/"
   xmlns:cc="http://creativecommons.org/ns#"
   xmlns:rdf="http://www.w3.org/1999/02/22-rdf-syntax-ns#"
   xmlns:svg="http://www.w3.org/2000/svg"
   xmlns="http://www.w3.org/2000/svg"
   xmlns:sodipodi="http://sodipodi.sourceforge.net/DTD/sodipodi-0.dtd"
   xmlns:inkscape="http://www.inkscape.org/namespaces/inkscape"
   width="270px"
   height="190px"
   viewBox="0 0 270 190"
   preserveAspectRatio="xMidYMid meet"
   version="1.1"
   id="svg30"
   sodipodi:docname="u21_logo_dark.svg"
   inkscape:version="0.92.3 (2405546, 2018-03-11)">
  <metadata
     id="metadata34">
    <rdf:RDF>
      <cc:Work
         rdf:about="">
        <dc:format>image/svg+xml</dc:format>
        <dc:type
           rdf:resource="http://purl.org/dc/dcmitype/StillImage" />
      </cc:Work>
    </rdf:RDF>
  </metadata>
  <sodipodi:namedview
     pagecolor="#ffffff"
     bordercolor="#666666"
     borderopacity="1"
     objecttolerance="10"
     gridtolerance="10"
     guidetolerance="10"
     inkscape:pageopacity="0"
     inkscape:pageshadow="2"
     inkscape:window-width="1715"
     inkscape:window-height="1443"
     id="namedview32"
     showgrid="false"
     inkscape:zoom="1.2421053"
     inkscape:cx="185.54627"
     inkscape:cy="115.13525"
     inkscape:window-x="943"
     inkscape:window-y="135"
     inkscape:window-maximized="0"
     inkscape:current-layer="svg30" />
  <!-- Generator: Sketch 48.2 (47327) - http://www.bohemiancoding.com/sketch -->
  <title
     id="title2">Group</title>
  <desc
     id="desc4">Created with Sketch.</desc>
  <defs
     id="defs6" />
  <path
     d="m 163.4819,105.9462 0.146,-0.18 26.348,-32.499 c 7.577,-9.172 13.552,-20.537 13.552,-33.098 0,-2.567 -0.233,-5.046 -0.678,-7.425 -1.684,-9.012 -9.542,-15.567 -18.71,-15.62 -0.074,-10e-4 -0.148,-10e-4 -0.222,-10e-4 -9.156,0 -18.243,3.585 -25.689,10.116 0.342,-0.018 0.687,-0.03 1.036,-0.03 10.368,0 16.349,5.982 16.349,12.96 0,4.985 -3.389,10.168 -6.978,14.754 l -47.385,58.613 c -3.113,3.73 -4.255,7.73 -4.255,10.773 0,5.782 3.589,9.371 8.972,9.371 h 14.311 12.669 c 0.089,-9.656 3.42,-19.035 10.534,-27.734"
     id="Fill-44"
     inkscape:connector-curvature="0"
     style="fill:#323e47;fill-rule:evenodd;stroke:none;stroke-width:1;fill-opacity:1" />
  <path
     d="m 243.5835,59.8475 c -0.6,0.741 -1.248,1.429 -1.937,2.063 v 57.812 c 0,7.709 6.248,13.957 13.956,13.957 7.708,0 13.957,-6.248 13.957,-13.957 v -91.953 z"
     id="Fill-46"
     inkscape:connector-curvature="0"
     style="fill:#323e47;fill-rule:evenodd;stroke:none;stroke-width:1;fill-opacity:1" />
  <path
     d="m 16.1981,179.3741 v -17.466 h 5.796 v 17.466 c 0,6.151 -4.929,10.093 -10.488,10.093 -5.598,0 -10.566,-3.942 -10.566,-10.093 v -17.466 h 5.875 v 17.466 c 0,2.799 2.247,4.652 4.691,4.652 2.405,0 4.692,-1.853 4.692,-4.652"
     id="Fill-48"
     inkscape:connector-curvature="0"
     style="fill:#323e47;fill-rule:evenodd;stroke:none;stroke-width:1;fill-opacity:1" />
  <polygon
     id="Fill-51"
     points="27.28,189.073 27.28,161.909 32.563,161.909 41.867,178.152 41.867,161.909 47.663,161.909 47.663,189.073 42.498,189.073 33.036,172.632 33.036,189.073 "
     style="fill:#323e47;fill-rule:evenodd;stroke:none;stroke-width:1;fill-opacity:1" />
  <polygon
     id="Fill-52"
     points="53.949,189.073 59.705,189.073 59.705,161.909 53.949,161.909 "
     style="fill:#323e47;fill-rule:evenodd;stroke:none;stroke-width:1;fill-opacity:1" />
  <polygon
     id="Fill-53"
     points="77.3436,189.0726 72.2186,189.0726 63.9386,161.9086 69.9316,161.9086 74.7806,179.7296 79.5906,161.9086 85.6226,161.9086 "
     style="fill:#323e47;fill-rule:evenodd;stroke:none;stroke-width:1;fill-opacity:1" />
  <polygon
     id="Fill-54"
     points="94.9459,173.1846 104.9599,173.1846 104.9599,178.1916 94.9459,178.1916 94.9459,183.9876 106.7339,183.9876 106.7339,189.0726 89.1899,189.0726 89.1899,161.9086 106.3789,161.9086 106.3789,166.9946 94.9459,166.9946 "
     style="fill:#323e47;fill-rule:evenodd;stroke:none;stroke-width:1;fill-opacity:1" />
  <path
     d="m 131.6611,189.073 h -6.939 l -6.071,-9.383 h -1.302 v 9.383 h -5.795 v -27.164 h 11.118 c 6.15,0 9.028,4.455 9.028,8.91 0,3.864 -2.129,7.649 -6.781,8.634 z m -14.312,-22.078 v 7.648 h 4.889 c 2.247,0 3.43,-2.05 3.43,-3.824 0,-1.695 -1.104,-3.824 -3.272,-3.824 z"
     id="Fill-55"
     inkscape:connector-curvature="0"
     style="fill:#323e47;fill-rule:evenodd;stroke:none;stroke-width:1;fill-opacity:1" />
  <path
     d="m 141.4326,181.1091 c 0.079,1.734 1.459,3.272 4.061,3.272 2.326,0 3.942,-1.104 3.982,-2.878 0.039,-1.222 -0.513,-2.286 -3.272,-3.075 l -3.273,-0.907 c -5.993,-1.853 -7.018,-5.362 -7.018,-7.806 0,-4.849 4.14,-8.122 9.344,-8.122 5.244,0 9.186,3.115 9.186,8.319 h -5.756 c 0,-1.813 -1.222,-3.075 -3.509,-3.075 -2.01,0 -3.508,1.104 -3.508,2.72 0,0.71 0.275,2.011 2.917,2.76 l 3.233,1.025 c 6.584,1.892 7.53,5.599 7.452,8.2 -0.079,5.402 -4.968,7.965 -9.778,7.965 -5.914,0 -9.857,-3.509 -9.857,-8.398 z"
     id="Fill-57"
     inkscape:connector-curvature="0"
     style="fill:#323e47;fill-rule:evenodd;stroke:none;stroke-width:1;fill-opacity:1" />
  <polygon
     id="Fill-60"
     points="159.579,189.073 165.335,189.073 165.335,161.909 159.579,161.909 "
     style="fill:#323e47;fill-rule:evenodd;stroke:none;stroke-width:1;fill-opacity:1" />
  <polygon
     id="Fill-61"
     points="182.3197,189.0726 176.4847,189.0726 176.4847,167.1126 169.1517,167.1126 169.1517,161.9086 189.6527,161.9086 189.6527,167.1126 182.3197,167.1126 "
     style="fill:#323e47;fill-rule:evenodd;stroke:none;stroke-width:1;fill-opacity:1" />
  <path
     d="m 196.3276,182.6466 -2.405,6.426 h -6.15 l 10.093,-27.164 h 6.268 l 10.054,27.164 h -6.072 l -2.405,-6.426 z m 7.53,-5.007 -2.878,-9.462 -2.76,9.462 z"
     id="Fill-62"
     inkscape:connector-curvature="0"
     style="fill:#323e47;fill-rule:evenodd;stroke:none;stroke-width:1;fill-opacity:1" />
  <path
     d="m 220.5399,181.1091 c 0.079,1.734 1.459,3.272 4.061,3.272 2.326,0 3.942,-1.104 3.982,-2.878 0.039,-1.222 -0.513,-2.286 -3.273,-3.075 l -3.272,-0.907 c -5.993,-1.853 -7.018,-5.362 -7.018,-7.806 0,-4.849 4.14,-8.122 9.344,-8.122 5.244,0 9.186,3.115 9.186,8.319 h -5.756 c 0,-1.813 -1.222,-3.075 -3.509,-3.075 -2.01,0 -3.509,1.104 -3.509,2.72 0,0.71 0.277,2.011 2.918,2.76 l 3.233,1.025 c 6.584,1.892 7.53,5.599 7.452,8.2 -0.079,5.402 -4.968,7.965 -9.778,7.965 -5.914,0 -9.857,-3.509 -9.857,-8.398 z"
     id="Fill-63"
     inkscape:connector-curvature="0"
     style="fill:#323e47;fill-rule:evenodd;stroke:none;stroke-width:1;fill-opacity:1" />
  <path
     d="m 91.908,0.4943 c -7.705,0 -13.951,6.246 -13.951,13.951 v 64.773 c 0.805,17.669 -11.247,26.023 -24.701,26.559 -6.954,0.012 -10.851,-2.006 -14.978,-5.281 2.345,5.273 5.813,9.778 9.631,14.055 23.594,26.438 57.95,2.796 57.95,-34.511 v -65.595 c 0,-7.705 -6.246,-13.951 -13.951,-13.951"
     id="Fill-65"
     inkscape:connector-curvature="0"
     style="fill:#323e47;fill-rule:evenodd;stroke:none;stroke-width:1;fill-opacity:1" />
  <path
     d="m 125.4948,46.9495 c 8.374,2.393 13.366,-1.748 16.948,-8.175 1.461,-2.447 3.809,-6.041 3.809,-6.041 2.124,-3.056 4.688,-5.982 7.701,-8.741 10.878,-9.961 25.115,-14.09 38.124,-11.275 -7.863,-7.718 -19.076,-12.224 -31.291,-12.224 -21.135,0 -36.487,11.365 -43.067,30.107 -2.393,7.576 1.396,14.555 7.776,16.349"
     id="Fill-67"
     inkscape:connector-curvature="0"
     style="fill:#666e76;fill-rule:evenodd;stroke:none;stroke-width:1;fill-opacity:1" />
  <path
     d="m 193.3824,105.7675 h -22.637 c -0.678,0.683 -1.337,1.393 -1.977,2.129 -6.097,7.014 -9.59,14.649 -10.383,22.694 -0.102,1.029 -0.155,2.06 -0.167,3.091 h 34.343 0.996 c 7.744,0 14.014,-6.306 13.956,-14.063 -0.056,-7.695 -6.435,-13.851 -14.131,-13.851"
     id="Fill-69"
     inkscape:connector-curvature="0"
     style="fill:#666e76;fill-rule:evenodd;stroke:none;stroke-width:1;fill-opacity:1" />
  <path
     d="m 44.1765,118.2777 c -9.641,-9.661 -15.052,-22.737 -15.314,-36.36 -0.012,-0.321 -0.02,-0.642 -0.02,-0.966 v -66.505 c 0,-7.705 -6.246,-13.951 -13.951,-13.951 -7.705,0 -13.951,6.246 -13.951,13.951 v 66.432 c 0,13.995 5.44,27.493 15.327,37.399 9.912,9.932 23.102,15.403 37.132,15.403 4.782,0 9.465,-0.636 13.955,-1.867 -8.684,-2.381 -16.643,-6.988 -23.178,-13.536"
     id="Fill-71"
     inkscape:connector-curvature="0"
     style="fill:#666e76;fill-rule:evenodd;stroke:none;stroke-width:1;fill-opacity:1" />
  <path
     d="m 219.856,58.5936 c -5.99,-4.851 -6.914,-13.639 -2.063,-19.63 l 26.963,-33.296 c 4.851,-5.991 13.639,-6.914 19.63,-2.064 5.99,4.851 6.914,13.64 2.063,19.63 l -26.963,33.297 c -4.851,5.99 -13.64,6.914 -19.63,2.063"
     id="Fill-73"
     inkscape:connector-curvature="0"
     style="fill:#666e76;fill-rule:evenodd;stroke:none;stroke-width:1;fill-opacity:1" />
  <polygon
     id="Fill-76"
     points="261.8106,165.6482 269.5596,161.7592 269.5596,189.0742 263.8006,189.0742 263.8006,169.7812 261.8106,170.7082 "
     style="fill:#666e76;fill-rule:evenodd;stroke:none;stroke-width:1;fill-opacity:1" />
  <path
     d="m 258.0889,169.7809 c 0,-0.001 0,-0.003 0,-0.005 0,-0.02 0,-0.04 0,-0.06 0,-4.849 -3.826,-8.121 -8.637,-8.121 -4.846,0 -8.491,3.114 -8.491,8.319 h 5.321 c 0,-1.814 1.13,-3.076 3.243,-3.076 1.859,0 3.243,1.104 3.243,2.721 0,0.069 -0.002,0.143 -0.009,0.222 h 0.007 c 0,1.029 -0.571,2.098 -1.331,3.044 l -10.229,13.123 v 3.126 h 16.199 v -5.43 h -7.681 l 5.741,-7.034 c 1.521,-1.851 2.624,-4.237 2.624,-6.829"
     id="Fill-77"
     inkscape:connector-curvature="0"
     style="fill:#666e76;fill-rule:evenodd;stroke:none;stroke-width:1;fill-opacity:1" />
</svg>
